<svg width="40" height="40" viewBox="0 0 40 40" fill="none" xmlns="http://www.w3.org/2000/svg">
<path d="M17.7662 0.933879C18.0517 0.734852 18.4355 1.00955 18.3333 1.3421C17.1027 5.1573 19.4517 7.40576 21.1782 7.76179C21.687 7.86538 22.2951 8.07974 23.5078 7.6288C24.3103 7.33455 24.5552 8.00686 24.034 8.599C21.6002 11.3857 17.7321 11.1086 16.0419 8.90563C14.7189 7.18834 13.9779 3.53992 17.7713 0.932979L17.7662 0.933879Z" fill="#E1DCDC"/>
<path d="M37.7769 31.389V27.0806C37.7769 25.618 36.5899 24.4309 35.1272 24.4309H4.31645C2.85382 24.4309 1.66675 25.618 1.66675 27.0806V32.698H1.67735V35.6816V38.4055V38.5327C1.67735 39.1792 2.20199 39.7091 2.85382 39.7091H36.6005C37.247 39.7091 37.7769 39.1845 37.7769 38.5327V38.4903C37.7769 38.4638 37.7876 38.432 37.7876 38.4055V35.6816V31.3943H37.7769V31.389Z" fill="#3596FF"/>
<path d="M11.3119 21.6063C11.3119 21.1611 11.6723 20.7954 12.1227 20.7954H27.136C27.5811 20.7954 27.9468 21.1558 27.9468 21.6063V24.4255H32.4619V19.5554C32.4619 17.8013 31.0363 16.3757 29.2822 16.3757H9.97115C8.21705 16.3757 6.7915 17.8013 6.7915 19.5554V24.4255H11.3119V21.6063Z" fill="#0075FF"/>
<path d="M33.8464 31.948H5.32024C5.14338 31.948 5 32.2155 5 32.5456V34.6838C5 35.0138 5.14338 35.2813 5.32024 35.2813H33.8464C34.0233 35.2813 34.1667 35.0138 34.1667 34.6838V32.5456C34.1667 32.2155 34.0233 31.948 33.8464 31.948Z" fill="white"/>
</svg>
