<svg width="46" height="46" viewBox="0 0 46 46" fill="none" xmlns="http://www.w3.org/2000/svg">
<g clip-path="url(#clip0_1497_185)">
<path d="M37.5294 33.5916C29.9623 33.5916 14.8801 33.5916 7.17374 33.5916C5.38197 33.5916 4.04249 31.739 4.49478 29.8254C5.12103 27.1639 7.43467 26.7188 7.43467 21.3711C9.06118 7.60228 15.3672 3.29681 22.5255 3.29681C29.6839 3.29681 35.9638 7.38483 37.5294 21.3711C37.4338 25.7804 39.6952 27.0334 40.2171 29.8428C40.5737 31.7738 39.3212 33.6003 37.5294 33.6003V33.5916Z" fill="white"/>
<path d="M14.8612 36.0156C14.0693 36.0156 13.4839 36.8191 13.7823 37.5536C15.1941 41.0084 18.5914 43.4531 22.5627 43.4531C26.534 43.4531 29.9313 41.0199 31.3431 37.5536C31.6415 36.8191 31.0561 36.0156 30.2642 36.0156H14.8612Z" fill="white"/>
</g>
<defs>
<clipPath id="clip0_1497_185">
<rect width="35.8702" height="40.9062" fill="white" transform="translate(4.40625 2.54688)"/>
</clipPath>
</defs>
</svg>
