<svg width="144" height="146" viewBox="0 0 144 146" fill="none" xmlns="http://www.w3.org/2000/svg">
<path d="M66.0026 17.5003C54.9325 19.0345 47.2276 21.5964 39.7346 31.3713C38.8373 32.5419 37.9894 34.0539 37.6532 35.5529C36.828 39.2325 36.7491 43.1863 36.1094 46.8984C35.178 52.3037 39.4377 60.9918 42.9469 64.374C53.1344 74.1926 64.507 80.5724 77.8519 74.2963C84.6939 71.0785 88.5477 64.8759 93.2619 58.7261C97.0177 53.8266 96.4059 47.0689 95.9988 41.025C95.5841 34.8697 91.5859 28.751 87.5164 24.8288C85.5401 22.924 83.3511 19.8976 80.744 19.3328C77.2729 18.5808 73.5745 18.7599 70.0112 18.27" stroke="#343434" stroke-width="5.67907" stroke-linecap="round"/>
<path d="M97.563 25.3203C101.293 25.8259 106.275 25.6817 109.779 27.5154C114.626 30.0522 119.209 35.4454 122.773 39.7454C122.933 39.9387 126.607 45.9187 124.863 43.0604" stroke="#343434" stroke-width="5.67907" stroke-linecap="round"/>
<path d="M124.831 51.5464C127.112 58.2846 126.866 64.7349 126.866 71.8841C126.866 74.7384 126.188 77.1889 126.188 80.0975C126.188 82.9174 124.959 84.8881 124.831 87.5286C124.625 91.8125 121.253 97.874 118.575 100.652C117.18 102.101 115.214 103.675 113.601 104.737C112.07 105.746 109.806 106.967 109.908 107.084" stroke="#343434" stroke-width="5.67907" stroke-linecap="round"/>
<path d="M41.9834 66.9736C41.8046 70.5103 41.8802 75.2272 38.8332 77.6479C37.3192 78.8507 35.0315 79.4681 34.1866 81.3488C33.3723 83.1615 32.769 84.2386 32.769 86.2575C32.769 89.751 36.3216 90.1142 39.1482 90.1142C42.2186 90.1142 46.0711 90.1739 48.0475 87.6599C49.1879 86.2093 52.8866 80.7818 50.4889 79.5958" stroke="#343434" stroke-width="5.67907" stroke-linecap="round"/>
<path d="M55.9097 90.1143C57.1839 90.3836 62.8501 97.9208 61.9926 99.3705" stroke="#343434" stroke-width="5.67907" stroke-linecap="round"/>
<path d="M34.3116 84.5658C31.4122 84.3746 28.7821 80.9105 25.7908 80.2089C23.3259 79.6307 23.7645 78.5062 21.7008 80.2488C20.5323 81.2355 19.36 82.3598 18.2925 83.4866C16.1726 85.7241 13.3357 86.8798 11.2865 89.0427C9.65151 90.7684 6.12718 90.8204 5 93.1999" stroke="#343434" stroke-width="5.67907" stroke-linecap="round"/>
<path d="M6.54248 102.456C16.8542 111.516 28.2805 119.058 39.0099 127.49C41.7284 129.626 44.5475 131.566 47.3399 133.573C48.9908 134.76 52.0627 135.81 53.2677 137.512C53.9724 138.507 57.452 139.335 57.452 139.481" stroke="#343434" stroke-width="5.67907" stroke-linecap="round"/>
<path d="M55.9097 142.567C61.9081 138.089 67.0899 131.55 73.2309 127.546C74.925 126.441 76.1404 124.472 77.882 123.369C78.3872 123.049 81.2648 120.969 80.4481 120.969" stroke="#343434" stroke-width="5.67907" stroke-linecap="round"/>
<path d="M72.8794 113.255C75.115 115.08 78.0555 118.157 80.593 119.426" stroke="#343434" stroke-width="5.67907" stroke-linecap="round"/>
<path d="M86.105 108.627C80.0469 115.278 79.9005 140.453 92.9347 133.719" stroke="#343434" stroke-width="5.67907" stroke-linecap="round"/>
<path d="M54.3667 80.8579C56.4258 84.5348 57.4287 89.7569 60.1037 92.8139C60.9582 93.7906 64.7 99.3705 65.1657 99.3705" stroke="#343434" stroke-width="5.67907" stroke-linecap="round"/>
<path d="M96.02 59.2603C98.8136 59.4511 101.515 63.0856 102.877 65.7739C103.819 67.6333 106.091 70.5594 106.5 72.6947C107.408 77.4438 109.6 84.283 111.447 88.5718" stroke="#343434" stroke-width="5.67907" stroke-linecap="round"/>
<path d="M130.401 73.1445C135.696 76.2686 137.673 84.3798 137.673 90.3974C137.673 93.4634 136.49 96.209 136.351 98.8403C136.182 102.025 133.358 104.699 133.045 107.65C132.491 112.882 124.797 119.634 120.814 121.599C116.276 123.839 109.029 125.767 105.276 121.599" stroke="#343434" stroke-width="5.67907" stroke-linecap="round"/>
<path d="M46.8363 57.7017C49.8986 57.7017 44.3531 57.9562 45.1993 56.4213C45.6526 55.5992 47.9287 57.0826 48.1644 57.2536C48.5423 57.5277 45.3337 55.6461 47.9482 56.5493" stroke="#343434" stroke-width="5.67907" stroke-linecap="round"/>
<path d="M61.4006 66.9576C62.9317 66.9576 60.159 67.2121 60.5821 65.6772C60.8087 64.8551 61.9468 66.3385 62.0646 66.5094C62.2535 66.7836 60.6493 64.9019 61.9565 65.8052" stroke="#343434" stroke-width="5.67907" stroke-linecap="round"/>
<path d="M75.8435 87.0288C73.219 88.2366 71.9689 90.6223 70.0194 92.7243C68.65 94.2007 67.4374 95.8577 65.8073 97.0722C64.9513 97.71 64.0194 98.2245 63.4672 99.1572C62.0564 101.54 58.9951 104.446 58.9951 107.395C58.9951 110.489 62.9793 116.13 66.4833 116.32C72.467 116.645 77.5835 113.04 81.1996 108.54C82.9541 106.356 89.2759 101.043 85.6717 98.9283" stroke="#343434" stroke-width="4.62814" stroke-linecap="round"/>
<path d="M106.258 100.913C106.258 104.637 107.451 108.547 106.359 112.241C105.277 115.904 104.602 119.396 102.954 122.829C101.632 125.582 99.4613 127.823 98.1251 130.452C97.8137 131.064 96.9101 132.427 96.4224 132.834C95.4067 133.68 93.0124 132.905 95.7362 133.31" stroke="#343434" stroke-width="4.62814" stroke-linecap="round"/>
</svg>
